HIERARCHY
ROOT Hips
{
	OFFSET 0.00000 0.00000 0.00000
	CHANNELS 6 Xposition Yposition Zposition Zrotation Yrotation Xrotation 
	JOINT LHipJoint
	{
		OFFSET 0 0 0
		CHANNELS 3 Zrotation Yrotation Xrotation
		JOINT LeftUpLeg
		{
			OFFSET 1.28858 -1.83292 1.03970
			CHANNELS 3 Zrotation Yrotation Xrotation
			JOINT LeftLeg
			{
				OFFSET 2.47846 -6.80952 0.00000
				CHANNELS 3 Zrotation Yrotation Xrotation
				JOINT LeftFoot
				{
					OFFSET 2.75274 -7.56311 0.00000
					CHANNELS 3 Zrotation Yrotation Xrotation
					JOINT LeftToeBase
					{
						OFFSET 0.12848 -0.35301 1.68223
						CHANNELS 3 Zrotation Yrotation Xrotation
						End Site
						{
							OFFSET 0.00000 -0.00000 0.87311
						}
					}
				}
			}
		}
	}
	JOINT RHipJoint
	{
		OFFSET 0 0 0
		CHANNELS 3 Zrotation Yrotation Xrotation
		JOINT RightUpLeg
		{
			OFFSET -1.31183 -1.83292 1.03970
			CHANNELS 3 Zrotation Yrotation Xrotation
			JOINT RightLeg
			{
				OFFSET -2.44740 -6.72417 0.00000
				CHANNELS 3 Zrotation Yrotation Xrotation
				JOINT RightFoot
				{
					OFFSET -2.67343 -7.34519 0.00000
					CHANNELS 3 Zrotation Yrotation Xrotation
					JOINT RightToeBase
					{
						OFFSET -0.16914 -0.46471 1.77626
						CHANNELS 3 Zrotation Yrotation Xrotation
						End Site
						{
							OFFSET -0.00000 -0.00000 0.92777
						}
					}
				}
			}
		}
	}
	JOINT LowerBack
	{
		OFFSET 0 0 0
		CHANNELS 3 Zrotation Yrotation Xrotation
		JOINT Spine
		{
			OFFSET 0.01249 2.14252 0.03842
			CHANNELS 3 Zrotation Yrotation Xrotation
			JOINT Spine1
			{
				OFFSET -0.02957 2.14199 -0.03751
				CHANNELS 3 Zrotation Yrotation Xrotation
				JOINT Neck
				{
					OFFSET 0 0 0
					CHANNELS 3 Zrotation Yrotation Xrotation
					JOINT Neck1
					{
						OFFSET -0.01678 1.65709 -0.05476
						CHANNELS 3 Zrotation Yrotation Xrotation
						JOINT Head
						{
							OFFSET 0.07912 1.58331 -0.11843
							CHANNELS 3 Zrotation Yrotation Xrotation
							End Site
							{
								OFFSET 0.03298 1.73940 -0.04271
							}
						}
					}
				}
				JOINT LeftShoulder
				{
					OFFSET 0 0 0
					CHANNELS 3 Zrotation Yrotation Xrotation
					JOINT LeftArm
					{
						OFFSET 3.39556 1.16496 0.08673
						CHANNELS 3 Zrotation Yrotation Xrotation
						JOINT LeftForeArm
						{
							OFFSET 5.23910 -0.00000 -0.00000
							CHANNELS 3 Zrotation Yrotation Xrotation
							JOINT LeftHand
							{
								OFFSET 3.31467 -0.00000 0.00000
								CHANNELS 3 Zrotation Yrotation Xrotation
								JOINT LeftFingerBase
								{
									OFFSET 0 0 0
									CHANNELS 3 Zrotation Yrotation Xrotation
									JOINT LeftHandIndex1
									{
										OFFSET 0.96590 -0.00000 0.00000
										CHANNELS 3 Zrotation Yrotation Xrotation
										End Site
										{
											OFFSET 0.77873 -0.00000 0.00000
										}
									}
								}
								JOINT LThumb
								{
									OFFSET 0 0 0
									CHANNELS 3 Zrotation Yrotation Xrotation
									End Site
									{
										OFFSET 0.79062 -0.00000 0.79062
									}
								}
							}
						}
					}
				}
				JOINT RightShoulder
				{
					OFFSET 0 0 0
					CHANNELS 3 Zrotation Yrotation Xrotation
					JOINT RightArm
					{
						OFFSET -3.27193 1.31331 0.33940
						CHANNELS 3 Zrotation Yrotation Xrotation
						JOINT RightForeArm
						{
							OFFSET -5.30252 -0.00000 0.00000
							CHANNELS 3 Zrotation Yrotation Xrotation
							JOINT RightHand
							{
								OFFSET -3.67875 -0.00000 0.00000
								CHANNELS 3 Zrotation Yrotation Xrotation
								JOINT RightFingerBase
								{
									OFFSET 0 0 0
									CHANNELS 3 Zrotation Yrotation Xrotation
									JOINT RightHandIndex1
									{
										OFFSET -0.59481 -0.00000 0.00000
										CHANNELS 3 Zrotation Yrotation Xrotation
										End Site
										{
											OFFSET -0.47955 -0.00000 0.00000
										}
									}
								}
								JOINT RThumb
								{
									OFFSET 0 0 0
									CHANNELS 3 Zrotation Yrotation Xrotation
									End Site
									{
										OFFSET -0.48687 -0.00000 0.48687
									}
								}
							}
						}
					}
				}
			}
		}
	}
}
MOTION
Frames: 10
Frame Time: .0083333
8.4934 18.1466 -31.5767 0 0 0 0 0 0 -21 0 0 0 0 0 0 0 0 0 0 0 0 0 0 21 0 0 0 0 0 0 0 0 0 0 0 0 0 0 0 0 0 0 0 0 0 0 -16 0 0 21 0 0 11 0 0 0 -8 0 0 0 0 0 0 0 0 0 0 0 0 0 0 0 0 0 0 0 0 8 0 0 0 0 0 0 0 0 0 0 0 0 0 0 0 0 0
8.4934 18.1466 -31.5767 -1.5945 25.2598 4.8130 0.0000 0.0000 0.0000 -15.5853 0.4120 2.9473 0.0150 0.7897 2.1705 1.2677 -3.8689 -20.3587 2.2229 9.3156 26.7877 0.0000 0.0000 0.0000 14.4917 7.6381 0.4201 -0.0001 0.0520 -0.1430 -1.1669 -22.6985 -38.5033 -1.6275 -8.0428 22.8442 -1.2043 -0.6908 -7.7210 -0.4453 -0.7892 -0.0383 0.1264 -0.4103 4.3018 -1.7011 -4.8902 0.3264 6.2956 -6.6133 1.5685 2.2151 -3.2803 0.7214 -0.0000 0.0000 0.0000 -82.2107 0.1613 37.0633 10.6547 -17.7570 -1.6691 -0.0000 0.0000 -9.2636 12.5115 -11.8835 -2.6163 -7.1250 0.0000 -0.0000 -10.2305 17.9280 6.6924 -0.0000 0.0000 0.0000 85.6557 -9.8430 21.4149 -14.8935 23.9976 -3.1825 0.0000 -0.0000 -1.2836 -11.4973 -36.3620 6.8764 7.1250 -0.0000 -0.0000 28.4523 -64.7251 -14.1139
8.4994 18.1456 -31.5802 -1.3647 25.2795 4.9803 0.0000 0.0000 0.0000 -15.8975 0.2767 2.9371 0.0134 0.7474 2.0539 1.2634 -3.9609 -20.3095 2.4784 9.7986 28.3269 0.0000 0.0000 0.0000 14.1315 7.1674 0.0977 -0.0000 0.0114 -0.0313 -1.0310 -22.6965 -37.8227 -1.5955 -7.9671 22.6143 -1.4566 -0.7168 -7.9402 -0.4185 -0.7972 0.0417 0.2916 -0.4211 4.5124 -1.7793 -4.9022 0.3099 6.2759 -6.6244 1.4739 2.2231 -3.2878 0.6971 -0.0000 -0.0000 0.0000 -82.3733 0.0097 37.0601 10.6691 -17.7793 -1.6735 -0.0000 0.0000 -9.1808 12.6733 -11.7490 -2.6217 -7.1250 0.0000 -0.0000 -10.1217 18.0537 6.5904 -0.0000 -0.0000 0.0000 85.5316 -9.7111 21.2247 -14.9240 24.0401 -3.1949 0.0000 -0.0000 -0.5909 -10.7955 -36.7406 6.5072 7.1250 -0.0000 -0.0000 29.6592 -64.8532 -14.8494
8.4982 18.1475 -31.5785 -1.3614 25.3016 4.9337 0.0000 0.0000 0.0000 -15.8908 0.2707 3.0091 0.0132 0.7408 2.0358 1.2647 -3.9185 -20.3264 2.4428 9.7331 28.1167 0.0000 0.0000 0.0000 14.1422 7.0712 0.1512 -0.0000 0.0053 -0.0145 -1.0297 -22.6937 -37.8129 -1.5585 -7.8785 22.3457 -1.4483 -0.6983 -7.8527 -0.4513 -0.7738 0.0111 0.2570 -0.4085 4.4304 -1.7348 -4.9183 0.3830 6.3115 -6.6463 1.4740 2.2285 -3.2995 0.6854 -0.0000 -0.0000 0.0000 -82.2962 0.0771 37.2391 10.6957 -17.8203 -1.6816 -0.0000 0.0000 -9.3232 12.7990 -11.6556 -2.6278 -7.1250 0.0000 -0.0000 -10.0367 18.1402 6.5138 -0.0000 -0.0000 0.0000 85.6206 -9.8137 21.1492 -14.9273 24.0448 -3.1963 0.0000 -0.0000 -0.5261 -10.7720 -36.7501 6.4942 7.1250 -0.0000 -0.0000 29.6959 -64.8547 -14.8704
8.4980 18.1459 -31.5802 -1.3849 25.2938 4.9868 0.0000 0.0000 0.0000 -15.8892 0.1513 2.9481 0.0142 0.7707 2.1180 1.2827 -3.8050 -20.4932 2.3723 9.6020 27.6972 0.0000 0.0000 0.0000 14.1473 7.0784 0.0542 -0.0000 -0.0075 0.0206 -1.0196 -22.7138 -37.7844 -1.5063 -7.7515 21.9618 -1.3628 -0.6662 -7.8641 -0.4979 -0.7369 -0.0364 0.1652 -0.3874 4.3851 -1.6212 -4.9424 0.4039 6.2779 -6.6785 1.4905 2.1975 -3.3151 0.6828 -0.0000 -0.0000 0.0000 -82.1934 0.1170 37.3624 10.7182 -17.8551 -1.6885 -0.0000 0.0000 -9.4897 12.7328 -11.6820 -2.6196 -7.1250 0.0000 -0.0000 -10.0821 18.1176 6.5493 -0.0000 -0.0000 0.0000 85.7142 -9.8501 21.0928 -14.9089 24.0191 -3.1888 0.0000 -0.0000 -0.5199 -10.7075 -36.7435 6.4538 7.1250 -0.0000 -0.0000 29.7565 -64.8312 -14.8872
8.4939 18.1498 -31.5739 -1.3161 25.3511 4.9164 0.0000 0.0000 0.0000 -15.9232 0.2333 3.0559 0.0143 0.7720 2.1217 1.2752 -3.9257 -20.4127 2.4762 9.7944 28.3135 0.0000 0.0000 0.0000 14.1591 7.2583 0.3555 -0.0001 0.0523 -0.1438 -1.0437 -22.8560 -38.0619 -1.5286 -7.8061 22.1268 -1.4308 -0.6734 -7.7675 -0.5575 -0.7394 -0.0257 0.1425 -0.3893 4.3420 -1.5464 -4.9688 0.3555 6.2622 -6.7174 1.5678 2.1765 -3.3320 0.7136 0.0000 0.0000 0.0000 -82.0834 0.1460 37.4101 10.7395 -17.8879 -1.6950 -0.0000 0.0000 -9.5863 12.6456 -11.6340 -2.5905 -7.1250 0.0000 -0.0000 -10.1441 18.1711 6.5787 0.0000 0.0000 0.0000 85.8205 -9.8824 20.9998 -15.0013 24.1479 -3.2265 0.0000 -0.0000 -0.1096 -9.8049 -38.0382 6.0784 7.1250 -0.0000 -0.0000 32.3744 -65.6541 -16.9309
8.5012 18.1482 -31.5828 -1.2659 25.1037 4.9591 0.0000 0.0000 0.0000 -16.1217 0.1035 3.1458 0.0128 0.7316 2.0107 1.3160 -3.8462 -20.7618 2.6940 10.1825 29.5696 0.0000 0.0000 0.0000 13.9647 6.8595 -0.0655 -0.0000 -0.0414 0.1136 -0.9119 -22.7058 -37.2246 -1.4485 -7.6080 21.5296 -1.3929 -0.5716 -7.8245 -0.5522 -0.6059 0.0257 0.1409 -0.3231 4.4253 -1.6183 -4.9845 0.3256 6.2852 -6.7340 1.4671 2.1969 -3.3418 0.6915 -0.0000 0.0000 0.0000 -82.1726 -0.0165 37.4254 10.7240 -17.8640 -1.6903 -0.0000 0.0000 -9.6259 12.6889 -11.6891 -2.6118 -7.1250 0.0000 -0.0000 -10.1125 18.1130 6.5707 -0.0000 0.0000 0.0000 85.7222 -9.7368 20.6921 -15.3491 24.6301 -3.3701 0.0000 0.0000 1.5483 -5.8692 -42.3142 3.9587 7.1250 -0.0000 -0.0000 43.0261 -67.7504 -25.3108
8.5023 18.1478 -31.5844 -1.3146 25.0307 4.9237 0.0000 0.0000 0.0000 -16.1041 0.0503 3.2098 0.0122 0.7127 1.9586 1.3323 -3.8172 -20.8997 2.7936 10.3531 30.1281 0.0000 0.0000 0.0000 13.9857 6.6700 -0.1765 -0.0002 -0.0848 0.2329 -0.8834 -22.5855 -36.9412 -1.4184 -7.5318 21.3008 -1.2500 -0.5389 -7.8220 -0.5895 -0.5737 0.0305 0.0258 -0.3037 4.4266 -1.6949 -4.9658 0.4368 6.4502 -6.7047 1.3335 2.2693 -3.3309 0.6388 -0.0000 -0.0000 0.0000 -82.1019 -0.0277 37.4470 10.7225 -17.8617 -1.6898 -0.0000 0.0000 -9.6387 12.7167 -11.8437 -2.6518 -7.1250 0.0000 -0.0000 -10.0891 17.9558 6.5906 -0.0000 -0.0000 0.0000 85.7636 -9.7491 20.7745 -15.3564 24.6403 -3.3731 0.0000 0.0000 1.4855 -5.9064 -42.3400 3.9859 7.1250 -0.0000 -0.0000 43.0355 -67.7802 -25.3449
8.5002 18.1481 -31.5854 -1.3926 25.0231 4.8964 0.0000 0.0000 0.0000 -16.0127 0.0038 3.1988 0.0127 0.7290 2.0034 1.3434 -3.7688 -20.9971 2.7436 10.2679 29.8486 0.0000 0.0000 0.0000 14.0837 6.7122 -0.1727 -0.0002 -0.0937 0.2575 -0.9111 -22.5425 -37.0371 -1.4348 -7.5735 21.4259 -1.2332 -0.5492 -7.8071 -0.5256 -0.5923 0.0258 0.0805 -0.3132 4.4140 -1.6224 -4.9909 0.3247 6.2755 -6.7427 1.4739 2.1942 -3.3462 0.6939 0.0000 -0.0000 0.0000 -82.1737 -0.0428 37.3513 10.7210 -17.8593 -1.6894 -0.0000 0.0000 -9.5075 12.6828 -11.8978 -2.6564 -7.1250 0.0000 -0.0000 -10.1113 17.9033 6.6175 0.0000 -0.0000 0.0000 85.6598 -9.7594 20.9238 -15.3589 24.6437 -3.3742 0.0000 0.0000 1.3786 -5.9020 -42.2382 3.9751 7.1250 -0.0000 -0.0000 42.8601 -67.7069 -25.1588
8.4993 18.1489 -31.5879 -1.3853 25.0154 4.9201 0.0000 0.0000 0.0000 -16.0242 -0.0424 3.1713 0.0132 0.7414 2.0375 1.3509 -3.7264 -21.0651 2.7011 10.1948 29.6098 0.0000 0.0000 0.0000 14.0698 6.7495 -0.2080 -0.0002 -0.1009 0.2772 -0.9229 -22.5274 -37.0817 -1.4638 -7.6462 21.6445 -1.2492 -0.5399 -7.8127 -0.5157 -0.5788 0.0261 0.1013 -0.3070 4.4176 -1.7336 -4.9692 0.3753 6.4090 -6.7121 1.3976 2.2601 -3.3329 0.6695 0.0000 0.0000 0.0000 -82.1802 -0.0822 37.3745 10.7256 -17.8665 -1.6908 -0.0000 0.0000 -9.4854 12.6460 -11.8503 -2.6381 -7.1250 0.0000 -0.0000 -10.1380 17.9534 6.6241 0.0000 0.0000 0.0000 85.6152 -9.7154 21.0018 -15.3133 24.5808 -3.3552 0.0000 0.0000 1.2949 -5.9079 -42.2090 3.9769 7.1250 -0.0000 -0.0000 42.8030 -67.6880 -25.1031
